name C:\Users\u0101727\Documents\MyRepositories\upper-imu-dc\Results\main_tracking\Case_48\ABD01_angularVelocities_groundFrame.mot
datacolumns 4
datarows 70
range 4.56000000 5.25000000
endheader 
time	radius_imu_x	radius_imu_y	radius_imu_z	
          4.56000000	         -0.83561656	         -0.25709643	          0.12907061	
          4.57000000	         -0.83482037	         -0.25163028	          0.13903432	
          4.58000000	         -0.83344362	         -0.24576375	          0.14603491	
          4.59000000	         -0.83153767	         -0.23957749	          0.15007335	
          4.60000000	         -0.82916496	         -0.23316676	          0.15128422	
          4.61000000	         -0.82639077	         -0.22663401	          0.14992894	
          4.62000000	         -0.82327711	         -0.22008089	          0.14638957	
          4.63000000	         -0.81988061	         -0.21359886	          0.14115811	
          4.64000000	         -0.81625407	         -0.20725880	          0.13481618	
          4.65000000	         -0.81244911	         -0.20110205	          0.12800242	
          4.66000000	         -0.80851747	         -0.19513602	          0.12136651	
          4.67000000	         -0.80451051	         -0.18933519	          0.11551184	
          4.68000000	         -0.80047722	         -0.18364635	          0.11093243	
          4.69000000	         -0.79646145	         -0.17799707	          0.10795761	
          4.70000000	         -0.79249931	         -0.17230569	          0.10672176	
          4.71000000	         -0.78861813	         -0.16649043	          0.10717001	
          4.72000000	         -0.78483704	         -0.16047641	          0.10909408	
          4.73000000	         -0.78116825	         -0.15420044	          0.11217990	
          4.74000000	         -0.77761770	         -0.14761502	          0.11604951	
          4.75000000	         -0.77418425	         -0.14069215	          0.12029057	
          4.76000000	         -0.77085687	         -0.13342686	          0.12447621	
          4.77000000	         -0.76761104	         -0.12583960	          0.12818304	
          4.78000000	         -0.76440696	         -0.11797615	          0.13101258	
          4.79000000	         -0.76119263	         -0.10990544	          0.13261642	
          4.80000000	         -0.75791158	         -0.10171559	          0.13272144	
          4.81000000	         -0.75451272	         -0.09350853	          0.13115086	
          4.82000000	         -0.75095969	         -0.08539278	          0.12783680	
          4.83000000	         -0.74723816	         -0.07747510	          0.12282115	
          4.84000000	         -0.74336037	         -0.06985261	          0.11624458	
          4.85000000	         -0.73936656	         -0.06260684	          0.10832610	
          4.86000000	         -0.73532347	         -0.05580086	          0.09933754	
          4.87000000	         -0.73132058	         -0.04947981	          0.08957740	
          4.88000000	         -0.72746417	         -0.04367390	          0.07934831	
          4.89000000	         -0.72386891	         -0.03840158	          0.06894121	
          4.90000000	         -0.72064572	         -0.03367109	          0.05862787	
          4.91000000	         -0.71788635	         -0.02947965	          0.04866018	
          4.92000000	         -0.71564705	         -0.02581097	          0.03927084	
          4.93000000	         -0.71393571	         -0.02263299	          0.03066941	
          4.94000000	         -0.71270624	         -0.01989779	          0.02303199	
          4.95000000	         -0.71186210	         -0.01754422	          0.01648741	
          4.96000000	         -0.71126733	         -0.01550227	          0.01110565	
          4.97000000	         -0.71076241	         -0.01369782	          0.00689302	
          4.98000000	         -0.71018230	         -0.01205685	          0.00379743	
          4.99000000	         -0.70937404	         -0.01050819	          0.00172430	
          5.00000000	         -0.70821165	         -0.00898453	          0.00056045	
          5.01000000	         -0.70660645	         -0.00742121	          0.00020138	
          5.02000000	         -0.70451210	         -0.00575283	          0.00057728	
          5.03000000	         -0.70192483	         -0.00390889	          0.00167339	
          5.04000000	         -0.69887943	         -0.00181011	          0.00354201	
          5.05000000	         -0.69544152	          0.00063327	          0.00630334	
          5.06000000	         -0.69169645	          0.00351990	          0.01013214	
          5.07000000	         -0.68773625	          0.00695138	          0.01522926	
          5.08000000	         -0.68364709	          0.01102255	          0.02178348	
          5.09000000	         -0.67949962	          0.01581099	          0.02993409	
          5.10000000	         -0.67534384	          0.02136911	          0.03974465	
          5.11000000	         -0.67120833	          0.02772057	          0.05119217	
          5.12000000	         -0.66710235	          0.03486013	          0.06416876	
          5.13000000	         -0.66301896	          0.04275508	          0.07848957	
          5.14000000	         -0.65893772	          0.05134738	          0.09390242	
          5.15000000	         -0.65482702	          0.06055647	          0.11009798	
          5.16000000	         -0.65064695	          0.07028269	          0.12672279	
          5.17000000	         -0.64635390	          0.08041143	          0.14339793	
          5.18000000	         -0.64190732	          0.09081731	          0.15974429	
          5.19000000	         -0.63727762	          0.10136886	          0.17541272	
          5.20000000	         -0.63245332	          0.11193385	          0.19011442	
          5.21000000	         -0.62744569	          0.12238544	          0.20364501	
          5.22000000	         -0.62229088	          0.13260838	          0.21589618	
          5.23000000	         -0.61704938	          0.14250304	          0.22685112	
          5.24000000	         -0.61180264	          0.15198567	          0.23656399	
          5.25000000	         -0.60664661	          0.16098407	          0.24512829	
